REM DIRINDEX 1\2,1\3,1\4,1\5
REM DIRNAME folder01,folder02,folder03,folder04,folder05
TITLE ""
FILE "1800_151.mp3" MP3
  TRACK 01 AUDIO
    TITLE "2:cjc044_4713"
    INDEX 01 00:00:00
  TRACK 02 AUDIO
    TITLE "0:"
    INDEX 01 00:01:28
  TRACK 03 AUDIO
    TITLE "3:cjc044_4714"
    INDEX 01 00:02:16
  TRACK 04 AUDIO
    TITLE "0:"
    INDEX 01 00:03:17
  TRACK 05 AUDIO
    TITLE "4:cjc044_4715"
    INDEX 01 00:04:11
  TRACK 06 AUDIO
    TITLE "0:"
    INDEX 01 00:05:48
  TRACK 07 AUDIO
    TITLE "2:cjc044_4716"
    INDEX 01 00:07:31
  TRACK 08 AUDIO
    TITLE "0:"
    INDEX 01 00:08:32
  TRACK 09 AUDIO
    TITLE "3:cjc044_4717"
    INDEX 01 00:09:20
  TRACK 10 AUDIO
    TITLE "0:"
    INDEX 01 00:10:33
  TRACK 11 AUDIO
    TITLE "4:cjc044_4718"
    INDEX 01 00:11:05
  TRACK 12 AUDIO
    TITLE "0:"
    INDEX 01 00:12:05
  TRACK 13 AUDIO
    TITLE "2:cjc044_4719"
    INDEX 01 00:14:04
  TRACK 14 AUDIO
    TITLE "0:"
    INDEX 01 00:15:07
  TRACK 15 AUDIO
    TITLE "3:cjc044_4720"
    INDEX 01 00:16:04
  TRACK 16 AUDIO
    TITLE "0:"
    INDEX 01 00:17:25
  TRACK 17 AUDIO
    TITLE "4:cjc044_4721"
    INDEX 01 00:18:19
  TRACK 18 AUDIO
    TITLE "0:"
    INDEX 01 00:19:26
  TRACK 19 AUDIO
    TITLE "2:cjc044_4722"
    INDEX 01 00:21:13
  TRACK 20 AUDIO
    TITLE "0:"
    INDEX 01 00:22:46
  TRACK 21 AUDIO
    TITLE "3:cjc044_4723"
    INDEX 01 00:23:24
  TRACK 22 AUDIO
    TITLE "0:"
    INDEX 01 00:24:53
  TRACK 23 AUDIO
    TITLE "4:cjc044_4724"
    INDEX 01 00:25:31
  TRACK 24 AUDIO
    TITLE "0:"
    INDEX 01 00:26:62
  TRACK 25 AUDIO
    TITLE "2:cjc044_4725"
    INDEX 01 00:28:43
  TRACK 26 AUDIO
    TITLE "0:"
    INDEX 01 00:29:46
  TRACK 27 AUDIO
    TITLE "3:cjc044_4726"
    INDEX 01 00:30:26
  TRACK 28 AUDIO
    TITLE "0:"
    INDEX 01 00:31:29
  TRACK 29 AUDIO
    TITLE "4:cjc044_4727"
    INDEX 01 00:32:11
  TRACK 30 AUDIO
    TITLE "0:"
    INDEX 01 00:33:15
  TRACK 31 AUDIO
    TITLE "2:cjc044_4728"
    INDEX 01 00:34:73
  TRACK 32 AUDIO
    TITLE "0:"
    INDEX 01 00:36:21
  TRACK 33 AUDIO
    TITLE "3:cjc044_4729"
    INDEX 01 00:37:12
  TRACK 34 AUDIO
    TITLE "0:"
    INDEX 01 00:38:26
  TRACK 35 AUDIO
    TITLE "4:cjc044_4730"
    INDEX 01 00:39:23
  TRACK 36 AUDIO
    TITLE "0:"
    INDEX 01 00:40:50
  TRACK 37 AUDIO
    TITLE "2:cjc044_4731"
    INDEX 01 00:42:31
  TRACK 38 AUDIO
    TITLE "0:"
    INDEX 01 00:43:60
  TRACK 39 AUDIO
    TITLE "3:cjc044_4732"
    INDEX 01 00:44:46
  TRACK 40 AUDIO
    TITLE "0:"
    INDEX 01 00:45:59
  TRACK 41 AUDIO
    TITLE "4:cjc044_4733"
    INDEX 01 00:46:53
  TRACK 42 AUDIO
    TITLE "0:"
    INDEX 01 00:48:08
  TRACK 43 AUDIO
    TITLE "2:cjc044_4734"
    INDEX 01 00:49:69
  TRACK 44 AUDIO
    TITLE "0:"
    INDEX 01 00:51:03
  TRACK 45 AUDIO
    TITLE "3:cjc044_4735"
    INDEX 01 00:51:69
  TRACK 46 AUDIO
    TITLE "0:"
    INDEX 01 00:53:19
  TRACK 47 AUDIO
    TITLE "4:cjc044_4736"
    INDEX 01 00:54:15
  TRACK 48 AUDIO
    TITLE "0:"
    INDEX 01 00:55:26
  TRACK 49 AUDIO
    TITLE "2:cjc044_4737"
    INDEX 01 00:57:09
  TRACK 50 AUDIO
    TITLE "0:"
    INDEX 01 00:58:15
  TRACK 51 AUDIO
    TITLE "3:cjc044_4738"
    INDEX 01 00:58:71
  TRACK 52 AUDIO
    TITLE "0:"
    INDEX 01 00:59:63
  TRACK 53 AUDIO
    TITLE "4:cjc044_4739"
    INDEX 01 01:00:43
  TRACK 54 AUDIO
    TITLE "0:"
    INDEX 01 01:01:50
  TRACK 55 AUDIO
    TITLE "2:cjc044_4740"
    INDEX 01 01:03:29
  TRACK 56 AUDIO
    TITLE "0:"
    INDEX 01 01:04:47
  TRACK 57 AUDIO
    TITLE "3:cjc044_4741"
    INDEX 01 01:05:26
  TRACK 58 AUDIO
    TITLE "0:"
    INDEX 01 01:07:02
  TRACK 59 AUDIO
    TITLE "4:cjc044_4742"
    INDEX 01 01:07:57
  TRACK 60 AUDIO
    TITLE "0:"
    INDEX 01 01:08:70
  TRACK 61 AUDIO
    TITLE "2:cjc044_4743"
    INDEX 01 01:10:55
  TRACK 62 AUDIO
    TITLE "0:"
    INDEX 01 01:11:68
  TRACK 63 AUDIO
    TITLE "3:cjc044_4744"
    INDEX 01 01:12:50
  TRACK 64 AUDIO
    TITLE "0:"
    INDEX 01 01:13:65
  TRACK 65 AUDIO
    TITLE "4:cjc044_4745"
    INDEX 01 01:14:47
  TRACK 66 AUDIO
    TITLE "0:"
    INDEX 01 01:15:62
  TRACK 67 AUDIO
    TITLE "2:cjc044_4746"
    INDEX 01 01:17:41
  TRACK 68 AUDIO
    TITLE "0:"
    INDEX 01 01:18:49
  TRACK 69 AUDIO
    TITLE "3:cjc044_4747"
    INDEX 01 01:19:27
  TRACK 70 AUDIO
    TITLE "0:"
    INDEX 01 01:20:32
  TRACK 71 AUDIO
    TITLE "4:cjc044_4748"
    INDEX 01 01:21:16
  TRACK 72 AUDIO
    TITLE "0:"
    INDEX 01 01:22:23
  TRACK 73 AUDIO
    TITLE "2:cjc044_4749"
    INDEX 01 01:24:06
  TRACK 74 AUDIO
    TITLE "0:"
    INDEX 01 01:25:19
  TRACK 75 AUDIO
    TITLE "3:cjc044_4750"
    INDEX 01 01:26:13
  TRACK 76 AUDIO
    TITLE "0:"
    INDEX 01 01:27:20
  TRACK 77 AUDIO
    TITLE "4:cjc044_4751"
    INDEX 01 01:28:14
  TRACK 78 AUDIO
    TITLE "0:"
    INDEX 01 01:29:23
  TRACK 79 AUDIO
    TITLE "2:cjc044_4752"
    INDEX 01 01:31:10
  TRACK 80 AUDIO
    TITLE "0:"
    INDEX 01 01:32:21
  TRACK 81 AUDIO
    TITLE "3:cjc044_4753"
    INDEX 01 01:33:21
  TRACK 82 AUDIO
    TITLE "0:"
    INDEX 01 01:35:14
  TRACK 83 AUDIO
    TITLE "4:cjc044_4754"
    INDEX 01 01:36:05
  TRACK 84 AUDIO
    TITLE "0:"
    INDEX 01 01:37:17
  TRACK 85 AUDIO
    TITLE "2:cjc044_4755"
    INDEX 01 01:39:04
  TRACK 86 AUDIO
    TITLE "0:"
    INDEX 01 01:40:21
  TRACK 87 AUDIO
    TITLE "3:cjc044_4756"
    INDEX 01 01:41:03
  TRACK 88 AUDIO
    TITLE "0:"
    INDEX 01 01:42:04
  TRACK 89 AUDIO
    TITLE "4:cjc044_4757"
    INDEX 01 01:42:63
  TRACK 90 AUDIO
    TITLE "0:"
    INDEX 01 01:44:05
  TRACK 91 AUDIO
    TITLE "2:cjc044_4758"
    INDEX 01 01:45:65
  TRACK 92 AUDIO
    TITLE "0:"
    INDEX 01 01:47:21
  TRACK 93 AUDIO
    TITLE "3:cjc044_4759"
    INDEX 01 01:48:11
  TRACK 94 AUDIO
    TITLE "0:"
    INDEX 01 01:49:22
  TRACK 95 AUDIO
    TITLE "4:cjc044_4760"
    INDEX 01 01:50:13
  TRACK 96 AUDIO
    TITLE "0:"
    INDEX 01 01:51:48
